<?xml version="1.0" encoding="UTF-8" standalone="no"?><!DOCTYPE svg PUBLIC "-//W3C//DTD SVG 1.1//EN" "http://www.w3.org/Graphics/SVG/1.1/DTD/svg11.dtd"><svg width="100%" height="100%" viewBox="0 0 60 60" version="1.1" xmlns="http://www.w3.org/2000/svg" xmlns:xlink="http://www.w3.org/1999/xlink" xml:space="preserve" xmlns:serif="http://www.serif.com/" style="fill-rule:evenodd;clip-rule:evenodd;stroke-linejoin:round;stroke-miterlimit:2;"><path d="M59.89,29.913c0,-7.833 -3.111,-15.345 -8.65,-20.883c-5.539,-5.539 -13.05,-8.65 -20.883,-8.65l-30.05,0l0,30.05c0,7.833 3.111,15.344 8.65,20.883c5.538,5.539 13.05,8.65 20.883,8.65l30.05,0l0,-30.05Zm-29.791,24.328l0,-14.858l-14.858,0c0,3.941 1.565,7.72 4.352,10.507c2.786,2.786 6.565,4.351 10.505,4.351l0.001,0Zm-0.001,-16.641l0,-14.857l-14.857,0l0,14.857l14.857,0Zm16.641,-14.857c0,3.94 -1.565,7.719 -4.351,10.506c-2.786,2.786 -6.566,4.351 -10.506,4.351l0,-14.857l14.857,0Zm-16.641,-1.784l0,-14.857l-14.857,0l0,14.857l14.857,0Zm16.641,0c0,-3.939 -1.565,-7.719 -4.351,-10.505c-2.786,-2.787 -6.566,-4.352 -10.506,-4.352l0,14.857l14.857,0Z" style="fill:#0e93ed;"/></svg>