<?xml version="1.0" encoding="UTF-8" standalone="no"?><!DOCTYPE svg PUBLIC "-//W3C//DTD SVG 1.1//EN" "http://www.w3.org/Graphics/SVG/1.1/DTD/svg11.dtd"><svg width="100%" height="100%" viewBox="0 0 821 338" version="1.1" xmlns="http://www.w3.org/2000/svg" xmlns:xlink="http://www.w3.org/1999/xlink" xml:space="preserve" xmlns:serif="http://www.serif.com/" style="fill-rule:evenodd;clip-rule:evenodd;stroke-linejoin:round;stroke-miterlimit:2;"><g><path d="M221.029,240.755c0,2.875 -0.933,5.252 -2.799,7.131c-1.865,1.88 -4.224,2.819 -7.077,2.819c-2.854,0 -5.213,-0.939 -7.078,-2.819c-1.866,-1.879 -2.798,-4.256 -2.798,-7.131l0,-152.568c0,-2.874 0.932,-5.251 2.798,-7.13c1.865,-1.88 4.224,-2.82 7.078,-2.82c2.853,0 5.212,0.94 7.077,2.82c1.866,1.879 2.799,4.256 2.799,7.13l0,152.568Z" style="fill:#8895aa;fill-rule:nonzero;"/><path d="M393.549,235.78c1.536,1.769 2.304,3.759 2.304,5.97c0,2.654 -0.988,5.031 -2.963,7.131c-1.975,2.101 -4.279,3.151 -6.913,3.151c-3.073,0 -5.816,-1.548 -8.23,-4.643l-50.368,-65.671l-50.368,66.002c-1.975,2.654 -4.608,3.98 -7.9,3.98c-2.415,0 -4.609,-0.829 -6.584,-2.487c-1.976,-1.658 -2.963,-3.814 -2.963,-6.468c0,-2.432 0.768,-4.532 2.304,-6.301l53.989,-69.651l-54.976,-71.309c-1.317,-1.769 -1.976,-3.759 -1.976,-5.97c0,-2.653 1.043,-4.975 3.128,-6.965c2.085,-1.99 4.444,-2.985 7.078,-2.985c3.292,0 5.925,1.437 7.9,4.312l51.356,66.665l49.38,-66.665c2.195,-2.875 4.938,-4.312 8.23,-4.312c2.853,0 5.103,0.829 6.749,2.488c1.646,1.658 2.469,3.703 2.469,6.135c0,2.433 -0.769,4.533 -2.305,6.302l-53.33,70.646l53.989,70.645Z" style="fill:#8895aa;fill-rule:nonzero;"/><path d="M587.137,156.18c0,2.653 -0.987,4.919 -2.962,6.799c-1.976,1.879 -4.28,2.819 -6.914,2.819l-124.438,0c0,13.267 2.689,25.152 8.066,35.655c5.377,10.502 13.058,18.794 23.044,24.875c9.986,6.08 21.782,9.121 35.389,9.121c10.534,0 19.971,-2.211 28.311,-6.634c8.34,-4.422 15.034,-10.06 20.081,-16.915c2.415,-1.99 4.719,-2.985 6.914,-2.985c2.194,0 4.17,0.885 5.925,2.653c1.756,1.769 2.634,3.759 2.634,5.971c0,2.432 -1.097,4.753 -3.292,6.965c-7.023,8.623 -15.857,15.699 -26.501,21.226c-10.644,5.528 -21.892,8.292 -33.743,8.292c-16.899,0 -31.823,-3.648 -44.771,-10.945c-12.949,-7.297 -23.044,-17.523 -30.287,-30.679c-7.242,-13.157 -10.863,-28.358 -10.863,-45.605c0,-18.131 3.566,-33.996 10.699,-47.595c7.132,-13.598 16.624,-23.99 28.476,-31.176c11.851,-7.187 24.47,-10.78 37.858,-10.78c13.168,0 25.513,3.096 37.035,9.287c11.522,6.191 20.904,15.257 28.147,27.197c7.242,11.94 10.973,26.091 11.192,42.454Zm-76.374,-59.701c-12.729,0 -24.526,4.422 -35.389,13.267c-10.864,8.844 -17.832,21.558 -20.905,38.142l112.258,0l0,-2.653c-1.097,-9.951 -4.389,-18.629 -9.876,-26.037c-5.487,-7.407 -12.345,-13.045 -20.575,-16.915c-8.23,-3.869 -16.735,-5.804 -25.513,-5.804Z" style="fill:#8895aa;fill-rule:nonzero;"/><path d="M644.766,243.878c0,2.931 -0.933,5.354 -2.798,7.27c-1.865,1.916 -4.225,2.874 -7.078,2.874c-2.853,0 -5.212,-0.958 -7.078,-2.874c-1.865,-1.916 -2.798,-4.339 -2.798,-7.27l0,-229.925c0,-2.93 0.933,-5.354 2.798,-7.27c1.866,-1.916 4.225,-2.874 7.078,-2.874c2.853,0 5.213,0.958 7.078,2.874c1.865,1.916 2.798,4.34 2.798,7.27l0,229.925Z" style="fill:#8895aa;fill-rule:nonzero;"/><path d="M808.069,78.237c2.853,0 5.212,0.94 7.077,2.82c1.866,1.879 2.799,4.256 2.799,7.13l0,166.175c0,17.468 -3.402,32.393 -10.206,44.776c-6.803,12.382 -16.24,21.779 -28.311,28.192c-12.071,6.412 -25.678,9.618 -40.821,9.618c-0.674,0 -41.387,-0.096 -41.993,-0.273c-7.171,-2.102 -9.276,-15.669 0.097,-17.445c0.66,-0.126 41.449,-0.192 42.225,-0.192c18.216,0 32.646,-5.749 43.29,-17.247c10.644,-11.498 15.966,-27.197 15.966,-47.097l0,-31.517c-5.486,9.287 -13.387,16.749 -23.702,22.388c-10.315,5.638 -21.508,8.457 -33.578,8.457c-19.094,0 -33.579,-5.749 -43.455,-17.247c-9.876,-11.498 -14.814,-27.086 -14.814,-46.765l0,-101.823c0,-2.874 0.933,-5.251 2.798,-7.13c1.866,-1.88 4.225,-2.82 7.078,-2.82c2.853,0 5.212,0.94 7.078,2.82c1.865,1.879 2.798,4.256 2.798,7.13l0,98.838c0,15.92 3.457,27.971 10.37,36.152c6.913,8.181 17.722,12.272 32.426,12.272c8.998,0 17.612,-2.267 25.842,-6.8c8.23,-4.532 14.814,-10.502 19.752,-17.91c4.938,-7.407 7.407,-15.312 7.407,-23.714l0,-98.838c0,-2.874 0.933,-5.251 2.799,-7.13c1.865,-1.88 4.224,-2.82 7.078,-2.82Z" style="fill:#8895aa;fill-rule:nonzero;"/><rect x="1.294" y="80.943" width="74.111" height="74.667" style="fill:#0e93ed;"/><rect x="1.294" y="170.846" width="74.111" height="74.667" style="fill:#0e93ed;"/><path d="M75.405,260.75l-74.111,0c0,0 0,0.192 0,0.558c0,19.655 7.808,38.505 21.706,52.403c13.898,13.898 32.748,21.705 52.403,21.705c0.001,0 0.002,0 0.002,0l0,-74.666Z" style="fill:#0e93ed;"/><path d="M164.64,156.988c0,-19.655 -7.808,-38.504 -21.706,-52.402c-13.898,-13.898 -32.748,-21.706 -52.403,-21.706c-0.002,0 -0.002,0 -0.002,0l0,74.667l74.111,0c0,0 0,-0.193 0,-0.559Z" style="fill:#8895aa;"/><path d="M164.64,170.846l-74.111,0l0,74.667l0.002,0c19.655,0 38.505,-7.808 52.403,-21.706c13.898,-13.898 21.706,-32.748 21.706,-52.402c0,-0.366 0,-0.559 0,-0.559Z" style="fill:#8895aa;"/><rect x="196.9" y="28.31" width="28.175" height="28.386" style="fill:#0e93ed;"/></g></svg>